<svg width="32" height="32" viewBox="0 0 32 32" fill="none" xmlns="http://www.w3.org/2000/svg">
<g clip-path="url(#clip0_426_34150)">
<path d="M26.7427 22.4L26.876 22.5334C27.1787 22.8386 27.5537 23.0624 27.966 23.1839C28.3784 23.3053 28.8148 23.3205 29.2347 23.228C29.6477 23.1413 30.0323 22.9522 30.3532 22.6779C30.674 22.4037 30.9207 22.0532 31.0707 21.6587C31.8068 19.7258 32.1587 17.6677 32.1067 15.6C31.9566 11.5387 30.2861 7.682 27.4264 4.79433C24.5666 1.90667 20.7263 0.198842 16.6667 0.0093588C14.52 -0.0652835 12.3802 0.293079 10.375 1.06308C8.36979 1.83308 6.54014 2.99896 4.99514 4.4912C3.45014 5.98345 2.22143 7.77151 1.38225 9.74878C0.543071 11.726 0.110612 13.852 0.110657 16C0.115597 20.242 1.80289 24.3088 4.8024 27.3083C7.80192 30.3078 11.8687 31.9951 16.1107 32C16.5613 32 17.004 31.9707 17.444 31.9334C17.7779 31.9052 18.0889 31.7524 18.3152 31.5053C18.5415 31.2583 18.6665 30.9351 18.6653 30.6L18.6227 25.816C18.6119 24.8707 18.8831 23.9435 19.4016 23.153C19.9202 22.3625 20.6626 21.7445 21.5341 21.3778C22.4056 21.0112 23.3665 20.9127 24.2942 21.0947C25.222 21.2768 26.0744 21.7312 26.7427 22.4ZM22.82 10.7334C23.2023 10.6319 23.6061 10.6461 23.9803 10.7741C24.3546 10.9022 24.6824 11.1383 24.9225 11.4527C25.1625 11.767 25.304 12.1455 25.3289 12.5403C25.3539 12.935 25.2613 13.3283 25.0627 13.6704C24.8642 14.0125 24.5686 14.288 24.2135 14.4622C23.8584 14.6363 23.4596 14.7013 23.0675 14.6488C22.6755 14.5963 22.3078 14.4287 22.011 14.1673C21.7142 13.9059 21.5016 13.5623 21.4 13.18C21.3325 12.9261 21.3158 12.6614 21.3506 12.4011C21.3855 12.1407 21.4713 11.8897 21.6032 11.6625C21.735 11.4353 21.9104 11.2363 22.1191 11.0769C22.3279 10.9175 22.5661 10.8007 22.82 10.7334ZM10.5133 22.6C10.131 22.7015 9.72722 22.6873 9.35298 22.5592C8.97874 22.4312 8.65087 22.1951 8.41082 21.8807C8.17077 21.5663 8.02933 21.1879 8.00437 20.7931C7.97941 20.3984 8.07206 20.0051 8.27061 19.663C8.46915 19.3209 8.76468 19.0454 9.11981 18.8712C9.47494 18.6971 9.87374 18.6321 10.2658 18.6846C10.6578 18.7371 11.0255 18.9046 11.3223 19.1661C11.6191 19.4275 11.8318 19.7711 11.9333 20.1534C12.0008 20.4072 12.0176 20.6719 11.9827 20.9323C11.9478 21.1927 11.862 21.4436 11.7302 21.6709C11.5983 21.8981 11.423 22.0971 11.2142 22.2565C11.0054 22.4159 10.7672 22.5327 10.5133 22.6ZM10.5133 14.6C10.131 14.7015 9.72722 14.6873 9.35298 14.5592C8.97874 14.4312 8.65087 14.1951 8.41082 13.8807C8.17077 13.5663 8.02933 13.1879 8.00437 12.7931C7.97941 12.3984 8.07206 12.0051 8.27061 11.663C8.46915 11.3209 8.76468 11.0454 9.11981 10.8712C9.47494 10.6971 9.87374 10.6321 10.2658 10.6846C10.6578 10.7371 11.0255 10.9046 11.3223 11.1661C11.6191 11.4275 11.8318 11.7711 11.9333 12.1534C12.0008 12.4072 12.0176 12.6719 11.9827 12.9323C11.9478 13.1927 11.862 13.4436 11.7302 13.6709C11.5983 13.8981 11.423 14.0971 11.2142 14.2565C11.0054 14.4159 10.7672 14.5327 10.5133 14.6ZM17.18 10.6C16.7977 10.7015 16.3939 10.6873 16.0196 10.5592C15.6454 10.4312 15.3175 10.1951 15.0775 9.88071C14.8374 9.56635 14.696 9.18786 14.671 8.79312C14.6461 8.39837 14.7387 8.00508 14.9373 7.66299C15.1358 7.3209 15.4313 7.04536 15.7865 6.87121C16.1416 6.69706 16.5404 6.63212 16.9324 6.68461C17.3245 6.73709 17.6922 6.90465 17.989 7.16608C18.2858 7.42751 18.4984 7.77109 18.6 8.15336C18.6674 8.40725 18.6842 8.67194 18.6494 8.93231C18.6145 9.19269 18.5287 9.44365 18.3968 9.67085C18.265 9.89806 18.0896 10.0971 17.8808 10.2565C17.6721 10.4159 17.4339 10.5327 17.18 10.6Z" fill="#ED6A19"/>
</g>
<defs>
<clipPath id="clip0_426_34150">
<rect width="32" height="32" fill="white"/>
</clipPath>
</defs>
</svg>
