<svg width="26" height="38" viewBox="0 0 26 38" fill="none" xmlns="http://www.w3.org/2000/svg">
<g clip-path="url(#clip0_163_1039)">
<path d="M16.8401 24.01L14.6101 23.69L13.6101 21.67C13.2701 20.97 12.7101 20.97 12.3601 21.67L11.3601 23.69L9.1301 24.01C8.3601 24.12 8.1901 24.65 8.7501 25.2L10.3601 26.77L9.9801 28.99C9.8501 29.76 10.3001 30.08 10.9901 29.72L12.9801 28.67L14.9701 29.72C15.6601 30.08 16.1101 29.75 15.9801 28.99L15.6001 26.77L17.2101 25.2C17.7701 24.66 17.5901 24.13 16.8301 24.01H16.8401ZM24.9801 0H16.2601C15.9001 0 15.5601 0.2 15.3801 0.52L9.4501 11.29C10.5801 11 11.7601 10.83 12.9801 10.83C15.4301 10.83 17.7401 11.45 19.7701 12.52L25.8601 1.48C26.2301 0.81 25.7401 0 24.9801 0Z" fill="#173042"/>
<path d="M11.4701 2.45009L10.5901 0.860088C10.4101 0.540088 10.0801 0.340088 9.71011 0.340088H1.00011C0.240113 0.340088 -0.239887 1.15009 0.130113 1.82009L5.98011 12.4501L11.4701 2.45009ZM12.9901 13.3401C6.27011 13.3401 0.830113 18.7901 0.830113 25.5001C0.830113 32.2201 6.28011 37.6601 12.9901 37.6601C19.7101 37.6601 25.1501 32.2101 25.1501 25.5001C25.1501 18.7801 19.7001 13.3401 12.9901 13.3401ZM12.9901 32.6701C9.03011 32.6701 5.83011 29.4601 5.83011 25.5101C5.83011 21.5501 9.04011 18.3501 12.9901 18.3501C16.9501 18.3501 20.1501 21.5601 20.1501 25.5101C20.1501 29.4701 16.9401 32.6701 12.9901 32.6701Z" fill="#173042"/>
</g>
<defs>
<clipPath id="clip0_163_1039">
<rect width="25.98" height="37.66" fill="white"/>
</clipPath>
</defs>
</svg>
