<svg width="25" height="25" viewBox="0 0 25 25" fill="none" xmlns="http://www.w3.org/2000/svg">
<g clip-path="url(#clip0_420_33250)">
<path d="M4.26038 3H20.2604C20.8127 3 21.2604 3.44772 21.2604 4V23.2763C21.2604 23.5525 21.0365 23.7764 20.7604 23.7764C20.6902 23.7764 20.6208 23.7615 20.5567 23.7329L12.2604 20.0313L3.96411 23.7329C3.71193 23.8455 3.41629 23.7322 3.30377 23.4801C3.27516 23.4159 3.26038 23.3465 3.26038 23.2763V4C3.26038 3.44772 3.7081 3 4.26038 3ZM19.2604 20.9645V5H5.26038V20.9645L12.2604 17.8412L19.2604 20.9645ZM12.2604 14.5L9.32145 16.0451L9.88274 12.7725L7.5051 10.4549L10.7909 9.97746L12.2604 7L13.7299 9.97746L17.0157 10.4549L14.638 12.7725L15.1993 16.0451L12.2604 14.5Z" fill="#194860"/>
</g>
<defs>
<clipPath id="clip0_420_33250">
<rect width="24" height="24" fill="white" transform="translate(0.260376 0.5)"/>
</clipPath>
</defs>
</svg>
