<svg width="25" height="25" viewBox="0 0 25 25" fill="none" xmlns="http://www.w3.org/2000/svg">
<g clip-path="url(#clip0_408_31836)">
<path fill-rule="evenodd" clip-rule="evenodd" d="M11.8627 19.136C11.9906 19.2128 12.1275 19.2468 12.2604 19.2451C12.3933 19.2468 12.5302 19.2128 12.6581 19.136L13.7934 18.4549C16.0199 17.119 18.7429 16.9008 21.1537 17.8651C22.043 18.2208 23.0104 17.5659 23.0104 16.6081V4.94918C23.0104 4.37123 22.6585 3.85151 22.1219 3.63686C19.0168 2.39483 15.5096 2.67585 12.6419 4.39647L12.2604 4.62539L11.8789 4.39647C9.01115 2.67585 5.50395 2.39483 2.39886 3.63686C1.86225 3.85151 1.51038 4.37123 1.51038 4.94918V16.6081C1.51038 17.5659 2.47777 18.2208 3.3671 17.8651C5.7779 16.9008 8.5009 17.119 10.7274 18.4549L11.8627 19.136ZM3.01038 5.00801V16.3948C5.80617 15.3468 8.93217 15.6285 11.4992 17.1686L11.5104 17.1754V5.92467L11.1071 5.68271C8.65812 4.21332 5.66672 3.96498 3.01038 5.00801ZM13.0216 17.1686L13.0104 17.1754V5.92467L13.4137 5.68271C15.8627 4.21332 18.8541 3.96498 21.5104 5.00801V16.3948C18.7146 15.3468 15.5886 15.6285 13.0216 17.1686Z" fill="#194860"/>
<path d="M9.53553 19.5423C7.51167 18.3617 5.00907 18.3617 2.98521 19.5423L2.88247 19.6022C2.52468 19.8109 2.40383 20.2701 2.61254 20.6279C2.82125 20.9857 3.28048 21.1066 3.63827 20.8979L3.74102 20.8379C5.29783 19.9298 7.22291 19.9298 8.77972 20.8379L9.86698 21.4722C11.346 22.3349 13.1748 22.3349 14.6538 21.4722L15.741 20.8379C17.2979 19.9298 19.2229 19.9298 20.7798 20.8379L20.8825 20.8979C21.2403 21.1066 21.6995 20.9857 21.9082 20.6279C22.1169 20.2701 21.9961 19.8109 21.6383 19.6022L21.5356 19.5423C19.5117 18.3617 17.0091 18.3617 14.9852 19.5423L13.898 20.1765C12.8861 20.7668 11.6347 20.7668 10.6228 20.1765L9.53553 19.5423Z" fill="#194860"/>
</g>
<defs>
<clipPath id="clip0_408_31836">
<rect width="24" height="24" fill="white" transform="translate(0.260376 0.5)"/>
</clipPath>
</defs>
</svg>
