<svg width="38" height="32" viewBox="0 0 38 32" fill="none" xmlns="http://www.w3.org/2000/svg">
<g clip-path="url(#clip0_163_1029)">
<path d="M31.75 14.31C31.75 13.62 31.19 13.06 30.5 13.06H9.5C8.81 13.06 8.25 13.62 8.25 14.31C8.25 15 8.81 15.56 9.5 15.56H30.5C31.19 15.56 31.75 15 31.75 14.31ZM9.5 18.06C8.81 18.06 8.25 18.62 8.25 19.31C8.25 20 8.81 20.56 9.5 20.56H18.2C18.89 20.56 19.45 20 19.45 19.31C19.45 18.62 18.89 18.06 18.2 18.06H9.5ZM23.5 10.56C24.19 10.56 24.75 10 24.75 9.31C24.75 8.62 24.19 8.06 23.5 8.06H15.5C14.81 8.06 14.25 8.62 14.25 9.31C14.25 10 14.81 10.56 15.5 10.56H23.5ZM36 0H2C0.9 0 0 0.9 0 2V27C0 28.1 0.9 29 2 29H21V25H7C7 23.34 5.66 22 4 22V7C5.66 7 7 5.66 7 4H31C31 5.66 32.34 7 34 7V22C32.34 22 31 23.34 31 25V29H36C37.1 29 38 28.1 38 27V2C38 0.9 37.1 0 36 0Z" fill="#173042"/>
<path d="M23.5 27.1399V31.3599C23.5 31.6199 23.72 31.8099 23.95 31.8099C24.04 31.8099 24.13 31.7799 24.21 31.7299L25.75 30.6299C25.83 30.5699 25.92 30.5499 26.01 30.5499C26.1 30.5499 26.19 30.5799 26.27 30.6299L27.81 31.7299C27.89 31.7899 27.98 31.8099 28.07 31.8099C28.3 31.8099 28.52 31.6299 28.52 31.3599V27.1399C27.76 27.4899 26.91 27.6899 26.02 27.6899C25.13 27.6899 24.28 27.4899 23.52 27.1399H23.5ZM26 25.1899C27.93 25.1899 29.5 23.6199 29.5 21.6899C29.5 19.7599 27.93 18.1899 26 18.1899C24.07 18.1899 22.5 19.7599 22.5 21.6899C22.5 23.6199 24.07 25.1899 26 25.1899Z" fill="#173042"/>
</g>
<defs>
<clipPath id="clip0_163_1029">
<rect width="38" height="31.81" fill="white"/>
</clipPath>
</defs>
</svg>
