<svg width="25" height="25" viewBox="0 0 25 25" fill="none" xmlns="http://www.w3.org/2000/svg">
<g clip-path="url(#clip0_420_33250)">
<g clip-path="url(#clip1_420_33250)">
<path d="M13.6901 10.3672C13.1487 10.3672 12.7291 10.7867 12.7291 11.3047C12.7291 11.8227 13.1487 12.2422 13.6901 12.2422C14.1846 12.2422 14.6041 11.8227 14.6041 11.3047C14.6041 10.7867 14.1846 10.3672 13.6901 10.3672ZM7.12756 10.3672C6.58616 10.3672 6.16663 10.7867 6.16663 11.3047C6.16663 11.8227 6.58616 12.2422 7.12756 12.2422C7.62209 12.2422 8.04163 11.8227 8.04163 11.3047C8.04163 10.7867 7.62209 10.3672 7.12756 10.3672Z" fill="#194860"/>
<path d="M21.2136 8.58589C20.0862 7.03901 18.5112 6.00542 16.7839 5.53901V5.54136C16.3831 5.09604 15.9307 4.68589 15.4245 4.32026C11.5878 1.5312 6.20184 2.38198 3.40105 6.2187C1.14402 9.33589 1.24012 13.5289 3.54168 16.5078L3.56043 19.6156C3.56043 19.6906 3.57215 19.7656 3.59559 19.8359C3.7198 20.232 4.14168 20.45 4.53543 20.3257L7.50262 19.3906C8.28777 19.6695 9.09871 19.8289 9.90496 19.8734L9.89324 19.8828C11.9815 21.4039 14.719 21.8609 17.2292 21.0312L20.2081 22.0015C20.2831 22.025 20.3604 22.039 20.4401 22.039C20.855 22.039 21.1901 21.7039 21.1901 21.289V18.1484C23.255 15.3453 23.3089 11.471 21.2136 8.58589ZM7.83074 17.7265L7.54949 17.6093L5.22918 18.3359L5.20574 15.8984L5.01824 15.6875C3.03543 13.2687 2.90418 9.78354 4.76043 7.22651C7.0198 4.12808 11.3511 3.4437 14.4401 5.67964C17.5386 7.93198 18.2253 12.2562 15.987 15.3359C14.1096 17.9117 10.7487 18.8632 7.83074 17.7265ZM19.6667 17.3281L19.4792 17.5625L19.5026 20L17.2057 19.2265L16.9245 19.3437C15.612 19.8312 14.2128 19.871 12.9167 19.5078L12.912 19.5054C14.644 18.9734 16.2143 17.8953 17.3464 16.3437C19.137 13.8757 19.4276 10.775 18.387 8.1312L18.4011 8.14057C18.9401 8.52729 19.4346 9.01011 19.8542 9.5937C21.5557 11.9281 21.4596 15.1062 19.6667 17.3281Z" fill="#194860"/>
<path d="M10.4088 10.3672C9.86741 10.3672 9.44788 10.7867 9.44788 11.3047C9.44788 11.8227 9.86741 12.2422 10.4088 12.2422C10.9033 12.2422 11.3229 11.8227 11.3229 11.3047C11.3229 10.7867 10.9033 10.3672 10.4088 10.3672Z" fill="#194860"/>
</g>
</g>
<defs>
<clipPath id="clip0_420_33250">
<rect width="24" height="24" fill="white" transform="translate(0.260376 0.5)"/>
</clipPath>
<clipPath id="clip1_420_33250">
<rect width="24" height="24" fill="white" transform="translate(0.260376 0.5)"/>
</clipPath>
</defs>
</svg>
