<svg width="32" height="33" viewBox="0 0 32 33" fill="none" xmlns="http://www.w3.org/2000/svg">
<path d="M14.5342 2.7257C14.535 3.23486 14.5342 3.74403 14.5342 4.25403C14.5333 4.96653 14.3133 5.24736 13.6292 5.4257C12.0325 5.84153 10.5508 6.50403 9.28083 7.5707C8.73083 8.03236 8.25 8.57653 7.77667 9.13486C8.42167 8.68653 9.10167 8.40653 9.88917 8.4557C10.6867 8.50486 11.3525 8.8282 11.87 9.4357C12.6833 10.3907 12.7633 11.7515 12.0775 12.7974C11.4042 13.8249 10.1058 14.2982 8.93333 13.939C8.21583 13.7199 7.6675 13.2815 7.295 12.6307C6.93 11.9907 6.85083 11.3024 7.0025 10.5799C6.96583 10.5715 6.92917 10.564 6.89333 10.5565C6.715 11.1332 6.5 11.7024 6.36667 12.289C5.96833 14.0474 6.03083 15.7932 6.5725 17.519C6.805 18.2574 6.67583 18.5707 6.005 18.9607C5.55583 19.2215 5.1075 19.4832 4.65417 19.7365C4.04333 20.0782 3.47167 19.8699 3.22417 19.2132C2.23167 16.574 2.115 13.889 2.81333 11.1632C2.83917 11.0649 2.8625 10.9657 2.9 10.8132C2.70917 10.8132 2.54917 10.8107 2.38917 10.814C2.02583 10.8207 1.66 10.8099 1.29917 10.844C0.711667 10.899 0.265 10.7165 0 10.1682V9.66986C0.938333 7.81986 1.8775 5.9707 2.81583 4.12153C2.85333 4.04736 2.8925 3.97403 2.93333 3.90153C3.30833 3.2382 4.07833 3.17403 4.55083 3.77736C4.96083 4.3007 5.35167 4.83903 5.75167 5.36986C5.81333 5.4507 5.87917 5.52736 5.95167 5.61736C6.85 4.66653 7.84083 3.8682 8.95833 3.2282C10.315 2.4507 11.7658 1.93986 13.3075 1.68903C14.0825 1.56236 14.5317 1.94736 14.5342 2.7257Z" fill="#ED6A19"/>
<path d="M30.9408 10.8409C30.4217 10.845 29.9017 10.8217 29.3825 10.8117C29.2817 10.8092 29.1808 10.8109 29.0475 10.8109C29.1458 11.26 29.2458 11.6709 29.3258 12.085C29.7875 14.4892 29.585 16.8409 28.745 19.1384C28.4708 19.8884 27.9075 20.0959 27.2175 19.7017C26.785 19.4542 26.355 19.2025 25.9225 18.9542C25.27 18.5784 25.1333 18.2525 25.3583 17.5367C25.9575 15.63 25.9733 13.7142 25.4483 11.7934C25.335 11.3792 25.1683 10.9792 24.9825 10.5784C25.0967 11.3717 24.9908 12.1117 24.5525 12.7809C24.1083 13.4575 23.4792 13.8717 22.6825 14.0175C21.4592 14.2417 20.2058 13.5884 19.6667 12.4542C19.1225 11.3092 19.4225 9.93505 20.3883 9.11171C21.2442 8.38255 22.7575 8.06171 24.1067 9.16838C24.1283 9.15005 24.1492 9.13171 24.1708 9.11421C23.8783 8.78505 23.6017 8.44005 23.2892 8.13171C21.8983 6.76255 20.21 5.92838 18.3417 5.43255C17.6125 5.23921 17.4042 4.98088 17.4033 4.22588V2.76005C17.405 1.93921 17.8508 1.55421 18.6583 1.69255C21.4042 2.16171 23.7683 3.37171 25.73 5.35588C25.81 5.43671 25.8833 5.52505 25.9833 5.63671C26.3508 5.14921 26.6992 4.68755 27.0475 4.22505C27.16 4.07588 27.2683 3.92338 27.385 3.77755C27.8633 3.17921 28.6508 3.22671 29 3.90338C29.9517 5.74838 30.89 7.60005 31.8167 9.45755C32.1608 10.1475 31.715 10.8342 30.9408 10.8409Z" fill="#ED6A19"/>
<path d="M26.0667 23.825C24.2492 26.0075 21.9792 27.48 19.2225 28.1892C19.1625 28.2042 19.1017 28.22 19.0433 28.2392C19.025 28.245 19.0117 28.2642 18.9783 28.2917C19.17 28.8617 19.3642 29.44 19.5567 30.0175C19.8367 30.8559 19.4342 31.4109 18.5425 31.4117C16.8275 31.4134 15.1125 31.4134 13.3975 31.4117C12.4917 31.4109 12.1017 30.8575 12.3908 29.9917C12.5808 29.4234 12.7708 28.8542 12.9625 28.2792C12.425 28.105 11.8992 27.9525 11.385 27.765C9.175 26.9584 7.34833 25.6125 5.855 23.8034C5.40167 23.2534 5.50833 22.6425 6.12417 22.2817C6.59083 22.0092 7.05833 21.74 7.5275 21.4725C8.10417 21.1417 8.4875 21.1967 8.93667 21.6884C10.2 23.0692 11.7083 24.0625 13.5275 24.5425C14.0942 24.6917 14.68 24.7667 15.2625 24.8442C13.55 23.9509 12.8917 22.8434 13.24 21.395C13.5433 20.1317 14.6933 19.24 15.9992 19.2567C17.3 19.2725 18.4233 20.1725 18.7033 21.425C19.03 22.8842 18.3667 23.9884 16.615 24.835C17.5442 24.78 18.3892 24.5984 19.2092 24.2942C20.6808 23.7484 21.9183 22.8609 22.9767 21.7117C23.4592 21.1884 23.8233 21.1342 24.4333 21.4859C24.8833 21.745 25.3342 22.0017 25.7817 22.2642C26.435 22.6475 26.5467 23.2484 26.0667 23.825Z" fill="#ED6A19"/>
</svg>
