<svg width="33" height="32" viewBox="0 0 33 32" fill="none" xmlns="http://www.w3.org/2000/svg">
<path d="M2.16417 10.3859V10.7142C2.16417 15.7775 2.16333 20.8409 2.16583 25.9042C2.16583 26.1534 2.1675 26.4059 2.20917 26.65C2.57917 28.8525 4.3175 30.3259 6.565 30.33C10.5667 30.3367 14.5692 30.3317 18.5717 30.3317H18.9083C18.85 30.0975 18.7925 29.9192 18.7642 29.7367C18.5342 28.2692 18.3267 26.7984 18.0783 25.3342C17.9567 24.6209 18.0333 23.9684 18.345 23.3084C19.7908 20.2492 21.2125 17.1775 22.6442 14.1117C23.5983 12.0684 25.68 11.3067 27.7242 12.2575C28.7367 12.7275 29.7425 13.2117 30.7408 13.685V10.3859H2.16417ZM13.7367 26.3367C12.6458 26.3425 11.5558 26.3384 10.465 26.3384C9.36417 26.3375 8.26333 26.3384 7.1625 26.3375C6.76166 26.3375 6.45917 26.1567 6.2725 25.81C6.09166 25.4742 6.11 25.1267 6.315 24.8034C6.515 24.4884 6.82 24.3442 7.18583 24.3442C9.37667 24.3409 11.5683 24.3375 13.76 24.345C14.3733 24.3475 14.8 24.7834 14.795 25.3559C14.79 25.93 14.3625 26.3334 13.7367 26.3367ZM16.6758 20.9934C16.5558 21.02 16.4283 21.0184 16.305 21.0184C14.7983 21.02 13.2925 21.0192 11.7867 21.0192C10.26 21.0192 8.73333 21.0225 7.20667 21.0175C6.48917 21.015 6.005 20.4 6.19 19.7434C6.3125 19.3084 6.7025 19.025 7.2025 19.0234C8.43833 19.02 9.675 19.0225 10.9108 19.0225C12.7492 19.0225 14.5875 19.02 16.4258 19.0242C16.9758 19.025 17.4017 19.3992 17.4592 19.91C17.515 20.4109 17.1783 20.8834 16.6758 20.9934ZM17.4383 14.9067C17.3417 15.3142 17.0825 15.5809 16.6633 15.6659C16.5325 15.6925 16.3958 15.6984 16.2617 15.6984C14.7758 15.7009 13.2908 15.7 11.8058 15.7C10.29 15.7 8.77333 15.7025 7.2575 15.6984C6.5825 15.6959 6.14083 15.2684 6.16 14.655C6.17583 14.1509 6.55583 13.7509 7.05917 13.71C7.14166 13.7034 7.225 13.7034 7.30833 13.7034C10.3092 13.7034 13.3108 13.6975 16.3125 13.7134C16.5742 13.7142 16.8717 13.8009 17.09 13.9434C17.4167 14.1567 17.53 14.5184 17.4383 14.9067Z" fill="#ED6A19"/>
<path d="M30.7608 6.06587C30.7425 5.64337 30.6991 5.21087 30.5816 4.80754C30.0325 2.91421 28.3725 1.72421 26.3141 1.72337C19.7541 1.72171 13.1941 1.72254 6.63332 1.72337C6.50915 1.72337 6.38415 1.72421 6.25915 1.72921C4.29415 1.80504 2.53332 3.29754 2.25582 5.24671C2.11998 6.19587 2.18748 7.17504 2.16582 8.14004C2.16415 8.20837 2.18248 8.27754 2.19248 8.35587H30.7541C30.7591 8.25837 30.7675 8.16004 30.7683 8.06171C30.7691 7.39587 30.7891 6.73004 30.7608 6.06587ZM7.80832 6.36921C7.26415 6.36671 6.81582 5.92004 6.81415 5.37921C6.81332 4.82921 7.28998 4.36171 7.83582 4.37754C8.38082 4.39254 8.81165 4.84171 8.80582 5.39087C8.79998 5.94254 8.36332 6.37171 7.80832 6.36921ZM11.1525 6.36921C10.5983 6.37337 10.1591 5.94504 10.1525 5.39421C10.145 4.83171 10.5941 4.37254 11.1483 4.37671C11.6825 4.38087 12.1416 4.84171 12.1433 5.37587C12.145 5.91671 11.6983 6.36504 11.1525 6.36921ZM14.48 6.36837C13.9316 6.37254 13.4808 5.93754 13.4725 5.39504C13.4641 4.83921 13.9216 4.37421 14.4741 4.37754C15.0125 4.38087 15.4658 4.83587 15.4675 5.37421C15.4691 5.91837 15.0258 6.36421 14.48 6.36837Z" fill="#ED6A19"/>
<path d="M29.0075 20.9308C28.8208 21.3308 28.6433 21.7142 28.465 22.0967C27.6892 23.7617 26.91 25.4258 26.14 27.0933C26 27.3983 25.8 27.6258 25.5117 27.7992C24.2392 28.5642 22.9733 29.3408 21.7033 30.11C20.9075 30.5925 20.1783 30.2517 20.0358 29.3308C19.8042 27.8325 19.5708 26.3342 19.3567 24.8333C19.3258 24.6183 19.3458 24.3625 19.435 24.1675C20.3908 22.0825 21.3658 20.0067 22.3358 17.9283C22.3442 17.9108 22.3617 17.8967 22.4017 17.8508C24.6017 18.8767 26.7908 19.8975 29.0075 20.9308Z" fill="#ED6A19"/>
<path d="M30.6608 17.3092C30.4492 17.9225 30.14 18.5025 29.8625 19.1259C27.6367 18.0884 25.4433 17.065 23.215 16.0259C23.4892 15.4484 23.7217 14.9042 24 14.3834C24.55 13.3559 25.7792 12.8934 26.8558 13.3409C27.7842 13.7267 28.6975 14.1525 29.59 14.6134C30.5475 15.1084 31.0142 16.285 30.6608 17.3092Z" fill="#ED6A19"/>
<path d="M30.7667 25.9633C30.7542 28.1867 29.2817 29.9433 27.0842 30.2742C26.3308 30.3875 25.55 30.3192 24.7808 30.3308C24.5325 30.335 24.2842 30.3317 24.035 30.3317C24.0283 30.3092 24.0208 30.2867 24.0142 30.2642C24.7208 29.8342 25.4192 29.39 26.1358 28.9775C26.7092 28.6483 27.1042 28.19 27.38 27.5908C28.4333 25.2992 29.5058 23.0158 30.5717 20.73C30.6133 20.6392 30.6617 20.5508 30.7433 20.3892C30.7558 20.5408 30.7675 20.6167 30.7675 20.6917C30.7692 22.4492 30.7767 24.2058 30.7667 25.9633Z" fill="#ED6A19"/>
</svg>
