<svg width="22" height="20" viewBox="0 0 22 20" fill="none" xmlns="http://www.w3.org/2000/svg">
<path d="M7.94694 14.1427V16.3334C7.94694 16.9144 8.17901 17.4716 8.5921 17.8824C9.00519 18.2933 9.56545 18.5241 10.1496 18.5241H17.8591C18.4433 18.5241 19.0035 18.2933 19.4166 17.8824C19.8297 17.4716 20.0618 16.9144 20.0618 16.3334L20.0618 3.18923C20.0618 2.60822 19.8297 2.05101 19.4166 1.64018C19.0035 1.22934 18.4433 0.998536 17.8591 0.998536L10.1496 0.998535C9.56545 0.998535 9.00519 1.22934 8.5921 1.64017C8.17901 2.05101 7.94695 2.60822 7.94695 3.18923V5.37992M14.555 9.76131L1.33885 9.76131M1.33885 9.76131L4.6429 13.0473M1.33885 9.76131L4.6429 6.47527" stroke="#E09595" stroke-width="2" stroke-linecap="round" stroke-linejoin="round"/>
</svg>
