<svg width="25" height="25" viewBox="0 0 25 25" fill="none" xmlns="http://www.w3.org/2000/svg">
<path d="M10.9586 3.47327H3.83362C3.62737 3.47327 3.45862 3.64202 3.45862 3.84827V10.9733C3.45862 11.1795 3.62737 11.3483 3.83362 11.3483H10.9586C11.1649 11.3483 11.3336 11.1795 11.3336 10.9733V3.84827C11.3336 3.64202 11.1649 3.47327 10.9586 3.47327ZM9.73987 9.75452H5.05237V5.06702H9.73987V9.75452ZM20.3336 3.47327H13.2086C13.0024 3.47327 12.8336 3.64202 12.8336 3.84827V10.9733C12.8336 11.1795 13.0024 11.3483 13.2086 11.3483H20.3336C20.5399 11.3483 20.7086 11.1795 20.7086 10.9733V3.84827C20.7086 3.64202 20.5399 3.47327 20.3336 3.47327ZM19.1149 9.75452H14.4274V5.06702H19.1149V9.75452ZM20.3336 12.8483H13.2086C13.0024 12.8483 12.8336 13.017 12.8336 13.2233V20.3483C12.8336 20.5545 13.0024 20.7233 13.2086 20.7233H20.3336C20.5399 20.7233 20.7086 20.5545 20.7086 20.3483V13.2233C20.7086 13.017 20.5399 12.8483 20.3336 12.8483ZM19.1149 19.1295H14.4274V14.442H19.1149V19.1295ZM10.0211 16.7858H7.02112V13.7858C7.02112 13.6826 6.93674 13.5983 6.83362 13.5983H5.70862C5.60549 13.5983 5.52112 13.6826 5.52112 13.7858V16.7858H2.52112C2.41799 16.7858 2.33362 16.8701 2.33362 16.9733V18.0983C2.33362 18.2014 2.41799 18.2858 2.52112 18.2858H5.52112V21.2858C5.52112 21.3889 5.60549 21.4733 5.70862 21.4733H6.83362C6.93674 21.4733 7.02112 21.3889 7.02112 21.2858V18.2858H10.0211C10.1242 18.2858 10.2086 18.2014 10.2086 18.0983V16.9733C10.2086 16.8701 10.1242 16.7858 10.0211 16.7858Z" fill="black"/>
</svg>
