<svg width="25" height="25" viewBox="0 0 25 25" fill="none" xmlns="http://www.w3.org/2000/svg">
<path d="M5.34612 10.0445C5.34612 7.02522 5.34612 5.51558 6.28408 4.57762C7.22205 3.63965 8.73169 3.63965 11.751 3.63965H13.3522C16.3714 3.63965 17.8811 3.63965 18.819 4.57762C19.757 5.51558 19.757 7.02522 19.757 10.0445V13.2469C19.757 16.2662 19.757 17.7758 18.819 18.7138C17.8811 19.6518 16.3714 19.6518 13.3522 19.6518H11.751C8.73169 19.6518 7.22205 19.6518 6.28408 18.7138C5.34612 17.7758 5.34612 16.2662 5.34612 13.2469V10.0445Z" fill="#63E9B0"/>
<path d="M16.1694 15.2494C16.3095 15.1401 16.4366 15.013 16.6907 14.7589L19.859 11.5906C19.9356 11.514 19.9006 11.382 19.7982 11.3465C19.4243 11.2168 18.9378 10.9732 18.4827 10.5181C18.0276 10.063 17.784 9.57653 17.6543 9.20255C17.6188 9.1002 17.4868 9.06515 17.4102 9.14175L14.2419 12.3101L14.2419 12.3101C13.9878 12.5642 13.8607 12.6913 13.7514 12.8314C13.6225 12.9967 13.512 13.1755 13.4218 13.3647C13.3454 13.5251 13.2885 13.6956 13.1749 14.0366L13.028 14.4772L12.7945 15.1777L12.5755 15.8346C12.5196 16.0024 12.5633 16.1874 12.6883 16.3125C12.8134 16.4375 12.9984 16.4812 13.1662 16.4253L13.8231 16.2063L14.5236 15.9728L14.9642 15.8259C15.3052 15.7123 15.4757 15.6554 15.6361 15.579C15.8253 15.4888 16.0041 15.3783 16.1694 15.2494Z" fill="white"/>
<path d="M20.8511 10.5986C21.5273 9.92234 21.5273 8.82596 20.8511 8.14974C20.1748 7.47352 19.0785 7.47352 18.4022 8.14974L18.3004 8.2516C18.2021 8.34989 18.1576 8.48719 18.1821 8.62401C18.1976 8.71007 18.2262 8.83591 18.2783 8.98605C18.3825 9.28633 18.5792 9.68051 18.9497 10.0511C19.3203 10.4216 19.7145 10.6183 20.0147 10.7225C20.1649 10.7746 20.2907 10.8032 20.3768 10.8187C20.5136 10.8432 20.6509 10.7987 20.7492 10.7004L20.8511 10.5986Z" fill="white"/>
<path fill-rule="evenodd" clip-rule="evenodd" d="M8.7487 9.24401C8.7487 8.91239 9.01754 8.64355 9.34916 8.64355H14.5531C14.8847 8.64355 15.1535 8.91239 15.1535 9.24401C15.1535 9.57563 14.8847 9.84446 14.5531 9.84446H9.34916C9.01754 9.84446 8.7487 9.57563 8.7487 9.24401ZM8.7487 12.4464C8.7487 12.1148 9.01754 11.846 9.34916 11.846H11.751C12.0826 11.846 12.3514 12.1148 12.3514 12.4464C12.3514 12.7781 12.0826 13.0469 11.751 13.0469H9.34916C9.01754 13.0469 8.7487 12.7781 8.7487 12.4464ZM8.7487 15.6489C8.7487 15.3172 9.01754 15.0484 9.34916 15.0484H10.5501C10.8817 15.0484 11.1505 15.3172 11.1505 15.6489C11.1505 15.9805 10.8817 16.2493 10.5501 16.2493H9.34916C9.01754 16.2493 8.7487 15.9805 8.7487 15.6489Z" fill="white"/>
</svg>
