<svg width="25" height="25" viewBox="0 0 25 25" fill="none" xmlns="http://www.w3.org/2000/svg">
<path d="M17.7001 10.6206C19.5027 10.6206 20.9639 9.15929 20.9639 7.35673C20.9639 5.55416 19.5027 4.0929 17.7001 4.0929C15.8975 4.0929 14.4363 5.55416 14.4363 7.35673C14.4363 9.15929 15.8975 10.6206 17.7001 10.6206Z" stroke="#194860" stroke-width="2.5" stroke-linecap="round" stroke-linejoin="round"/>
<path d="M6.82072 21.5C8.62328 21.5 10.0845 20.0387 10.0845 18.2361C10.0845 16.4336 8.62328 14.9723 6.82072 14.9723C5.01815 14.9723 3.55688 16.4336 3.55688 18.2361C3.55688 20.0387 5.01815 21.5 6.82072 21.5Z" stroke="#194860" stroke-width="2.5" stroke-linecap="round" stroke-linejoin="round"/>
<path d="M14.4363 14.9723H20.9639V20.412C20.9639 21.0129 20.4769 21.5 19.876 21.5H15.5242C14.9234 21.5 14.4363 21.0129 14.4363 20.412V14.9723Z" stroke="#194860" stroke-width="2.5" stroke-linecap="round" stroke-linejoin="round"/>
<path d="M3.55676 4.0929H10.0844V9.53262C10.0844 10.1335 9.59733 10.6206 8.99648 10.6206H4.64471C4.04386 10.6206 3.55676 10.1335 3.55676 9.53262V4.0929Z" stroke="#194860" stroke-width="2.5" stroke-linecap="round" stroke-linejoin="round"/>
</svg>
