<svg width="25" height="25" viewBox="0 0 25 25" fill="none" xmlns="http://www.w3.org/2000/svg">
<path fill-rule="evenodd" clip-rule="evenodd" d="M15.7431 16.606L17.202 12.7108L18.6609 16.606H15.7431ZM18.102 10.306H16.302L12.252 21.106H14.052L15.0609 18.406H19.3359L20.352 21.106H22.152L18.102 10.306ZM13.0359 14.869L10.7472 12.6091L10.7751 12.5839C12.3438 10.837 13.458 8.82906 14.115 6.70596H16.752V4.90596H10.452V3.10596H8.65201V4.90596H2.35201V6.69516H12.4068C11.802 8.43576 10.8489 10.081 9.55201 11.5228C8.71501 10.594 8.02291 9.57786 7.47391 8.50596H5.67391C6.33181 9.97206 7.23181 11.3608 8.35681 12.6091L3.77221 17.1262L5.05201 18.406L9.55201 13.906L12.3501 16.7041L13.0359 14.869Z" fill="#3A85E7"/>
</svg>
