<svg width="33" height="33" viewBox="0 0 33 33" fill="none" xmlns="http://www.w3.org/2000/svg">
<g clip-path="url(#clip0_426_34182)">
<path d="M3.9238 15.7755C1.51965 13.7854 1.4423 10.8634 2.41598 8.97615C3.48247 6.90596 5.69553 5.73573 8.04963 6.05422C10.0461 6.32449 12.1345 7.8032 12.6678 10.5632C13.1555 6.9915 15.0674 4.79482 18.7728 4.57006C21.3726 4.41263 23.683 6.0433 24.6385 8.42835C25.5621 10.7342 25.0853 13.6807 22.6575 15.6399C22.7303 15.6808 22.793 15.72 22.8586 15.7509C24.2799 16.4134 25.0571 17.5299 25.0762 19.0951C25.108 21.7404 25.1053 24.3857 25.0789 27.031C25.0571 29.1685 23.4746 30.7073 21.3435 30.7091C16.0874 30.7136 10.8323 30.7136 5.57632 30.7091C3.42696 30.7073 1.84178 29.1576 1.8254 27.01C1.80538 24.3757 1.80538 21.7422 1.82722 19.1078C1.83905 17.6892 2.49241 16.6154 3.72452 15.9002C3.79004 15.8619 3.85374 15.8192 3.9238 15.7755ZM18.9156 13.6216C20.5163 13.6152 21.8176 12.3112 21.813 10.7178C21.8085 9.10992 20.4863 7.80411 18.8738 7.81685C17.2841 7.82959 15.9755 9.15906 15.9937 10.7433C16.0128 12.3485 17.3114 13.6279 18.9156 13.6216ZM9.44826 11.4631C9.45463 10.2519 8.48733 9.27099 7.28161 9.26553C6.08955 9.26007 5.0913 10.2574 5.09312 11.4513C5.09494 12.6424 6.05861 13.6116 7.25249 13.6216C8.47004 13.6325 9.44098 12.677 9.44826 11.4631ZM7.65288 25.6178C7.19881 25.6178 6.74473 25.6114 6.29065 25.6196C5.78652 25.6287 5.47622 25.9053 5.46985 26.3367C5.46348 26.7844 5.77742 27.0765 6.29793 27.0801C7.19517 27.0874 8.09149 27.0874 8.98873 27.0801C9.48557 27.0756 9.80861 26.7853 9.81771 26.363C9.82681 25.9308 9.49194 25.6278 8.98054 25.6196C8.53829 25.6123 8.09513 25.6178 7.65288 25.6178ZM11.0034 15.4297C12.3247 15.4297 13.5768 15.4297 14.9063 15.4297C13.6751 14.3541 13.0008 13.0392 12.7406 11.4995C12.6978 13.0319 12.1127 14.3168 11.0034 15.4297Z" fill="#ED6A19"/>
<path d="M33.8065 23.079C33.8065 24.4986 33.8147 25.9173 33.8038 27.3368C33.7929 28.75 32.77 29.7364 31.4178 29.6108C31.0811 29.5799 30.7326 29.4425 30.4341 29.2751C29.1993 28.5798 27.9827 27.8509 26.7551 27.1439C26.5858 27.0465 26.5294 26.9355 26.5294 26.7426C26.5358 24.302 26.5358 21.8606 26.5294 19.42C26.5285 19.228 26.5831 19.1152 26.7533 19.0178C27.9817 18.3108 29.2002 17.5873 30.4296 16.8812C32.0339 15.9594 33.7865 16.9667 33.8038 18.824C33.8174 20.2408 33.8065 21.6604 33.8065 23.079Z" fill="#ED6A19"/>
</g>
<defs>
<clipPath id="clip0_426_34182">
<rect width="32" height="32" fill="white" transform="translate(0.5 0.5)"/>
</clipPath>
</defs>
</svg>
