<svg width="25" height="25" viewBox="0 0 25 25" fill="none" xmlns="http://www.w3.org/2000/svg">
<path d="M12.4199 12.12C12.3899 12.12 12.3699 12.12 12.3399 12.12C12.2899 12.11 12.2199 12.11 12.1599 12.12C9.25995 12.03 7.06995 9.75 7.06995 6.94C7.06995 4.08 9.39995 1.75 12.2599 1.75C15.1199 1.75 17.4499 4.08 17.4499 6.94C17.4399 9.75 15.2399 12.03 12.4499 12.12C12.4399 12.12 12.4299 12.12 12.4199 12.12ZM12.2599 3.25C10.2299 3.25 8.56995 4.91 8.56995 6.94C8.56995 8.94 10.1299 10.55 12.1199 10.62C12.1699 10.61 12.3099 10.61 12.4399 10.62C14.3999 10.53 15.9399 8.92 15.9499 6.94C15.9499 4.91 14.2899 3.25 12.2599 3.25Z" fill="#194860"/>
<path d="M12.43 23.05C10.47 23.05 8.49999 22.55 7.00999 21.55C5.61999 20.63 4.85999 19.37 4.85999 18C4.85999 16.63 5.61999 15.36 7.00999 14.43C10.01 12.44 14.87 12.44 17.85 14.43C19.23 15.35 20 16.61 20 17.98C20 19.35 19.24 20.62 17.85 21.55C16.35 22.55 14.39 23.05 12.43 23.05ZM7.83999 15.69C6.87999 16.33 6.35999 17.15 6.35999 18.01C6.35999 18.86 6.88999 19.68 7.83999 20.31C10.33 21.98 14.53 21.98 17.02 20.31C17.98 19.67 18.5 18.85 18.5 17.99C18.5 17.14 17.97 16.32 17.02 15.69C14.53 14.03 10.33 14.03 7.83999 15.69Z" fill="#194860"/>
</svg>
