<svg width="33" height="33" viewBox="0 0 33 33" fill="none" xmlns="http://www.w3.org/2000/svg">
<path d="M28.4383 6.46589C28.4367 6.22922 28.3992 5.98839 28.3417 5.75839C27.9592 4.21172 26.6817 3.22922 25.0292 3.22172C23.0433 3.21339 21.0583 3.22005 19.0725 3.22005C14.6958 3.22005 10.32 3.21589 5.94334 3.22172C3.93667 3.22422 2.49334 4.64339 2.49167 6.61505C2.48667 12.5626 2.48834 18.5101 2.49417 24.4576C2.49417 24.7351 2.52417 25.0201 2.59 25.2892C2.95917 26.8109 4.23167 27.8267 5.83334 27.8326C9.64834 27.8476 13.4633 27.8376 17.2792 27.8376C17.34 27.8376 17.4017 27.8284 17.5117 27.8201C17.5117 27.7151 17.5175 27.6334 17.5108 27.5534C17.4275 26.5192 17.7283 25.5992 18.2542 24.7117C19.5025 22.6026 20.7058 20.4667 21.9433 18.3509C22.2608 17.8067 22.575 17.2784 22.4608 16.6126C22.4583 16.5959 22.475 16.5759 22.4967 16.5234C22.9942 16.6851 23.13 16.2892 23.315 15.9617C23.3608 15.8809 23.4075 15.8001 23.4542 15.7184C23.6742 15.3351 23.8942 14.9526 24.1433 14.5201H22.4792V10.5517H26.4367C26.445 10.7134 26.4517 10.8609 26.4583 10.9901C26.7892 10.8684 27.09 10.7184 27.4083 10.6517C27.7367 10.5834 28.0808 10.5976 28.435 10.5742C28.4383 10.5276 28.4442 10.4776 28.4442 10.4276C28.4442 9.10672 28.4475 7.78589 28.4383 6.46589ZM8.455 25.8209C7.485 25.8209 6.52084 25.8534 5.56084 25.8084C5.01917 25.7826 4.5375 25.2542 4.50584 24.6934C4.46584 23.9817 4.49584 23.2651 4.49584 22.5234H8.455V25.8209ZM8.45667 20.5009H4.50417V16.5426H8.45667V20.5009ZM8.46334 14.5059H4.50834V10.5509H8.46334V14.5059ZM8.46334 8.52255H4.48667V7.86089C4.48667 7.41422 4.47917 6.96755 4.48917 6.52089C4.5025 5.88755 4.95834 5.28339 5.55834 5.25089C6.51917 5.19922 7.48417 5.23672 8.46334 5.23672V8.52255ZM19.0167 17.0851C17.6842 17.8492 16.3558 18.6192 15.025 19.3876C14.6658 19.5951 14.3067 19.8042 13.9467 20.0101C12.8542 20.6342 11.8025 20.0317 11.7983 18.7784C11.795 17.8017 11.7975 16.8251 11.7975 15.8476C11.7975 14.8817 11.7958 13.9151 11.7983 12.9484C11.8017 11.6892 12.8533 11.0851 13.9433 11.7134C15.6425 12.6934 17.3408 13.6759 19.0408 14.6542C19.4967 14.9167 19.7767 15.2884 19.7875 15.8292C19.7983 16.4101 19.5058 16.8042 19.0167 17.0851ZM26.4483 8.51422H22.4667V5.23922C22.5567 5.23172 22.645 5.21755 22.7333 5.21755C23.4917 5.21589 24.25 5.21339 25.0083 5.21755C25.9092 5.22255 26.4442 5.75672 26.4475 6.65089C26.45 7.26422 26.4483 7.87672 26.4483 8.51422Z" fill="#ED6A19"/>
<path d="M25.5833 14.6951C23.5475 18.2226 21.5225 21.7309 19.4858 25.2592C20.6558 25.9342 21.7917 26.5901 22.9458 27.2559C24.9867 23.7209 27.0117 20.2126 29.0433 16.6917C27.87 16.0142 26.74 15.3626 25.5833 14.6951ZM25.735 19.7301C25.5433 20.0409 25.1608 20.1001 24.8558 19.9159C24.5675 19.7409 24.4375 19.3826 24.6033 19.0759C24.9383 18.4551 25.2892 17.8417 25.6667 17.2459C25.7642 17.0926 25.9842 17.0159 26.1483 16.9042C26.6758 16.9542 27.0217 17.4551 26.7925 17.8976C26.4675 18.5234 26.1058 19.1309 25.735 19.7301Z" fill="#ED6A19"/>
<path d="M28.4442 24.4117C28.4375 26.385 27.03 27.8084 25.06 27.8375C24.7808 27.8409 24.5017 27.8375 24.145 27.8375C24.5392 27.155 24.8983 26.5267 25.2675 25.905C25.3025 25.8467 25.4 25.8167 25.4742 25.79C26.1183 25.5634 26.4625 25.1134 26.44 24.4309C26.4267 24.0184 26.5333 23.6717 26.7442 23.3217C27.3042 22.3909 27.8367 21.4425 28.4217 20.4292C28.4325 20.595 28.4442 20.6809 28.4442 20.7667C28.445 21.9817 28.4475 23.1967 28.4442 24.4117Z" fill="#ED6A19"/>
<path d="M30.2958 14.51C30.1233 14.8508 29.9183 15.175 29.71 15.5383C28.5408 14.8642 27.4042 14.2083 26.2467 13.5408C26.4708 13.1608 26.66 12.7908 26.8942 12.4533C27.2642 11.9208 27.9742 11.7567 28.5583 12.0617C28.99 12.2867 29.4125 12.5308 29.8233 12.7917C30.4158 13.1667 30.6125 13.8858 30.2958 14.51Z" fill="#ED6A19"/>
<path d="M22.1967 28.3634C22.0008 28.5067 21.8533 28.6376 21.6858 28.7334C21.0917 29.0734 20.495 29.4092 19.8917 29.7326C19.4392 29.9759 18.9208 29.7634 18.8925 29.2834C18.8433 28.4351 18.8633 27.5826 18.8583 26.7309C18.8583 26.6617 18.8925 26.5909 18.9233 26.4734C20.0233 27.1084 21.0875 27.7234 22.1967 28.3634Z" fill="#ED6A19"/>
</svg>
