<svg width="25" height="25" viewBox="0 0 25 25" fill="none" xmlns="http://www.w3.org/2000/svg">
<path fill-rule="evenodd" clip-rule="evenodd" d="M19.9079 8.44638C19.858 8.44332 19.8038 8.44334 19.7475 8.44336L19.7335 8.44337H17.5273C15.7088 8.44337 14.1528 9.83326 14.1528 11.6458C14.1528 13.4583 15.7088 14.8482 17.5273 14.8482H19.7335L19.7475 14.8482C19.8038 14.8482 19.858 14.8482 19.9079 14.8452C20.6465 14.7999 21.2998 14.2386 21.3547 13.4547C21.3583 13.4033 21.3583 13.3479 21.3582 13.2965L21.3582 13.2826V10.009L21.3582 9.99505C21.3583 9.94369 21.3583 9.88828 21.3547 9.83688C21.2998 9.05293 20.6465 8.49167 19.9079 8.44638ZM17.3317 12.4998C17.7998 12.4998 18.1794 12.1174 18.1794 11.6458C18.1794 11.1741 17.7998 10.7918 17.3317 10.7918C16.8635 10.7918 16.484 11.1741 16.484 11.6458C16.484 12.1174 16.8635 12.4998 17.3317 12.4998Z" fill="#FF8282"/>
<path d="M19.8686 8.44468C19.8686 7.49947 19.8343 6.48555 19.23 5.75869C19.1717 5.68852 19.1096 5.62039 19.0435 5.55427C18.4443 4.95512 17.6846 4.68923 16.746 4.56303C15.8339 4.44041 14.6685 4.44042 13.1972 4.44043H11.5056C10.0343 4.44042 8.86894 4.44041 7.95688 4.56303C7.01823 4.68923 6.2585 4.95512 5.65935 5.55427C5.06021 6.15341 4.79432 6.91314 4.66812 7.85179C4.5455 8.76385 4.5455 9.92923 4.54552 11.4005V11.4909C4.54551 12.9622 4.5455 14.1276 4.66812 15.0397C4.79432 15.9783 5.06021 16.738 5.65935 17.3372C6.2585 17.9363 7.01823 18.2022 7.95688 18.3284C8.86893 18.451 10.0343 18.451 11.5056 18.451H13.1972C14.6685 18.451 15.8339 18.451 16.746 18.3284C17.6846 18.2022 18.4443 17.9363 19.0435 17.3372C19.2072 17.1735 19.3463 16.9974 19.4645 16.8086C19.8251 16.2326 19.8686 15.5267 19.8686 14.8471C19.83 14.8483 19.7893 14.8483 19.7475 14.8483L17.5273 14.8483C15.7088 14.8483 14.1528 13.4584 14.1528 11.6459C14.1528 9.83336 15.7088 8.44346 17.5273 8.44346L19.7475 8.44346C19.7893 8.44344 19.83 8.44343 19.8686 8.44468Z" fill="#EF5454"/>
<path d="M7.94801 13.8474C7.94801 14.1791 8.21685 14.4479 8.54847 14.4479C8.88009 14.4479 9.14892 14.1791 9.14892 13.8474V9.04381C9.14892 8.71219 8.88009 8.44336 8.54847 8.44336C8.21685 8.44336 7.94801 8.71219 7.94801 9.04381V13.8474Z" fill="white"/>
</svg>
